<svg width="52" height="51" viewBox="0 0 52 51" fill="none" xmlns="http://www.w3.org/2000/svg">
    <g clip-path="url(#clip0_13_195)">
        <mask id="path-1-inside-1_13_195" fill="white">
            <path
                d="M3.50347 7.51592L43.4375 47.9878C44.8185 49.3834 50.1392 47.29 48.6564 45.7927L8.70783 5.32079C7.32679 3.9252 2.00613 6.01858 3.48894 7.51592H3.50347Z" />
        </mask>
        <path
            d="M3.50347 7.51592L43.4375 47.9878C44.8185 49.3834 50.1392 47.29 48.6564 45.7927L8.70783 5.32079C7.32679 3.9252 2.00613 6.01858 3.48894 7.51592H3.50347Z"
            fill="#BAFDA2" />
        <path
            d="M3.50347 7.51592L23.1646 -11.8839L15.0528 -20.105H3.50347V7.51592ZM43.4375 47.9878L23.7763 67.3877L23.7905 67.402L23.8046 67.4162L43.4375 47.9878ZM48.6564 45.7927L28.9988 65.1961L29.0146 65.2121L29.0304 65.2281L48.6564 45.7927ZM8.70783 5.32079L28.3654 -14.0826L28.3531 -14.0951L28.3408 -14.1076L8.70783 5.32079ZM3.48894 7.51592L-16.137 26.9514L-8.03102 35.1368H3.48894V7.51592ZM3.50347 7.51592L-16.1577 26.9158L23.7763 67.3877L43.4375 47.9878L63.0986 28.588L23.1646 -11.8839L3.50347 7.51592ZM43.4375 47.9878L23.8046 67.4162C32.4296 76.132 42.9414 76.1553 46.0082 76.0482C50.436 75.8936 54.3843 74.8395 57.5309 73.5592C60.0546 72.5323 65.5712 69.9693 70.1236 64.3492C72.5762 61.3215 76.2603 55.4846 76.5215 47.2499C76.8104 38.1441 72.7892 30.9083 68.2824 26.3573L48.6564 45.7927L29.0304 65.2281C24.8943 61.0514 21.0312 54.2086 21.3075 45.4984C21.5562 37.6594 25.0571 32.2208 27.1978 29.578C31.1265 24.728 35.5047 22.8818 36.7108 22.391C38.54 21.6467 40.9919 20.9479 44.08 20.8401C45.8071 20.7798 55.136 20.5414 63.0704 28.5594L43.4375 47.9878ZM48.6564 45.7927L68.314 26.3893L28.3654 -14.0826L8.70783 5.32079L-10.9498 24.7242L28.9988 65.1961L48.6564 45.7927ZM8.70783 5.32079L28.3408 -14.1076C19.7158 -22.8234 9.20396 -22.8467 6.1371 -22.7396C1.70927 -22.585 -2.23902 -21.5309 -5.38563 -20.2506C-7.90926 -19.2237 -13.4259 -16.6607 -17.9783 -11.0406C-20.4309 -8.01283 -24.115 -2.17594 -24.3762 6.05874C-24.6651 15.1646 -20.6439 22.4003 -16.137 26.9514L3.48894 7.51592L23.1149 -11.9195C27.251 -7.74284 31.1141 -0.900005 30.8378 7.81018C30.5892 15.6492 27.0882 21.0878 24.9475 23.7306C21.0188 28.5806 16.6407 30.4268 15.4345 30.9176C13.6053 31.6619 11.1535 32.3607 8.06536 32.4685C6.33821 32.5289 -2.99062 32.7672 -10.9251 24.7492L8.70783 5.32079ZM3.48894 7.51592V35.1368H3.50347V7.51592V-20.105H3.48894V7.51592Z"
            fill="#BAFDA2" mask="url(#path-1-inside-1_13_195)" />
        <mask id="path-3-inside-2_13_195" fill="white">
            <path
                d="M7.66106 48.4092C21.6024 35.1512 35.4128 21.7768 49.1215 8.27167C49.9647 7.44304 49.7321 6.58534 48.5836 6.28006C47.4352 5.97477 45.5017 6.46904 44.6149 7.34128C30.9208 20.8465 17.0958 34.2353 3.15449 47.4934C2.29679 48.322 2.55846 49.1797 3.69237 49.485C4.91351 49.8048 6.74521 49.296 7.66106 48.4238V48.4092Z" />
        </mask>
        <path
            d="M7.66106 48.4092C21.6024 35.1512 35.4128 21.7768 49.1215 8.27167C49.9647 7.44304 49.7321 6.58534 48.5836 6.28006C47.4352 5.97477 45.5017 6.46904 44.6149 7.34128C30.9208 20.8465 17.0958 34.2353 3.15449 47.4934C2.29679 48.322 2.55846 49.1797 3.69237 49.485C4.91351 49.8048 6.74521 49.296 7.66106 48.4238V48.4092Z"
            fill="#BAFDA2" />
        <path
            d="M7.66106 48.4092L-11.3732 28.394L-19.9599 36.5597V48.4092H7.66106ZM49.1215 8.27167L29.7611 -11.4284L29.7492 -11.4166L29.7372 -11.4048L49.1215 8.27167ZM44.6149 7.34128L25.2461 -12.3504L25.2331 -12.3376L25.2202 -12.3249L44.6149 7.34128ZM3.15449 47.4934L-15.8798 27.4781L-15.9586 27.5531L-16.0368 27.6286L3.15449 47.4934ZM3.69237 49.485L-3.48833 76.1562L-3.39707 76.1807L-3.30565 76.2047L3.69237 49.485ZM7.66106 48.4238L26.71 68.4251L35.282 60.2613V48.4238H7.66106ZM7.66106 48.4092L26.6954 68.4245C40.7577 55.0513 54.6848 41.5639 68.5058 27.9481L49.1215 8.27167L29.7372 -11.4048C16.1408 1.98977 2.44699 15.2511 -11.3732 28.394L7.66106 48.4092ZM49.1215 8.27167L68.4819 27.9717C72.4533 24.0688 80.0483 13.869 76.2627 -0.130434C72.5081 -14.0152 60.9496 -19.0129 55.6795 -20.4138L48.5836 6.28006L41.4878 32.9739C37.3661 31.8783 26.4981 27.4621 22.9361 14.2896C19.3432 1.00254 26.6329 -8.35404 29.7611 -11.4284L49.1215 8.27167ZM48.5836 6.28006L55.6795 -20.4138C48.8443 -22.2308 42.8705 -21.2381 39.4621 -20.3398C36.0086 -19.4297 30.3078 -17.3292 25.2461 -12.3504L44.6149 7.34128L63.9838 27.033C59.8088 31.1395 55.5182 32.5567 53.5402 33.078C52.2162 33.4269 50.6733 33.7002 48.9217 33.7839C47.2856 33.862 44.6526 33.8152 41.4878 32.9739L48.5836 6.28006ZM44.6149 7.34128L25.2202 -12.3249C11.645 1.06291 -2.05981 14.3354 -15.8798 27.4781L3.15449 47.4934L22.1888 67.5086C36.2514 54.1352 50.1965 40.63 64.0097 27.0074L44.6149 7.34128ZM3.15449 47.4934L-16.0368 27.6286C-20.2143 31.6644 -27.878 42.0327 -23.9171 56.1479C-20.0874 69.7957 -8.7276 74.7456 -3.48833 76.1562L3.69237 49.485L10.8731 22.8138C14.9784 23.9191 25.6404 28.2874 29.2703 41.2229C33.0313 54.6258 25.6655 64.1509 22.3458 67.3581L3.15449 47.4934ZM3.69237 49.485L-3.30565 76.2047C3.38014 77.9557 9.27967 77.072 13.0078 76.0629C16.7896 75.0392 22.0226 72.8893 26.71 68.4251L7.66106 48.4238L-11.3878 28.4224C-7.61633 24.8305 -3.7571 23.371 -1.42544 22.7399C0.85263 22.1233 5.22574 21.3341 10.6904 22.7653L3.69237 49.485ZM7.66106 48.4238H35.282V48.4092H7.66106H-19.9599V48.4238H7.66106Z"
            fill="#BAFDA2" mask="url(#path-3-inside-2_13_195)" />
        <mask id="path-5-inside-3_13_195" fill="white">
            <path
                d="M1.70093 29.1763C17.1686 29.2781 32.6363 29.3217 48.1041 29.3508C49.3107 29.3508 51.1569 28.9583 51.8111 27.8244C52.4653 26.6905 51.2587 26.1671 50.2847 26.1671C34.8169 26.1526 19.3492 26.0944 3.88153 25.9927C2.68946 25.9927 0.828687 26.3852 0.174508 27.5191C-0.479671 28.653 0.726926 29.1618 1.70093 29.1763Z" />
        </mask>
        <path
            d="M1.70093 29.1763C17.1686 29.2781 32.6363 29.3217 48.1041 29.3508C49.3107 29.3508 51.1569 28.9583 51.8111 27.8244C52.4653 26.6905 51.2587 26.1671 50.2847 26.1671C34.8169 26.1526 19.3492 26.0944 3.88153 25.9927C2.68946 25.9927 0.828687 26.3852 0.174508 27.5191C-0.479671 28.653 0.726926 29.1618 1.70093 29.1763Z"
            fill="#BAFDA2" />
        <path
            d="M48.1041 29.3508L48.0521 56.9717L48.0781 56.9717H48.1041V29.3508ZM50.2847 26.1671L50.2587 53.788L50.2717 53.788H50.2847V26.1671ZM3.88153 25.9927L4.06324 -1.62764L3.97238 -1.62823H3.88153V25.9927ZM1.70093 29.1763L1.51921 56.7967C17.0523 56.8989 32.571 56.9426 48.0521 56.9717L48.1041 29.3508L48.156 1.72994C32.7017 1.70089 17.285 1.65737 1.88264 1.55604L1.70093 29.1763ZM48.1041 29.3508V56.9717C51.2685 56.9717 55.1446 56.5155 59.1857 55.119C62.6393 53.9257 70.6019 50.5261 75.7359 41.6272L51.8111 27.8244L27.8862 14.0216C32.3661 6.25652 39.0785 3.6202 41.1437 2.90656C43.7965 1.98988 46.1462 1.72989 48.1041 1.72989V29.3508ZM51.8111 27.8244L75.7359 41.6272C78.1645 37.4177 80.6367 30.609 79.1962 22.3445C77.7387 13.9821 72.9974 8.26098 68.8851 4.97984C61.8486 -0.634344 54.2527 -1.45378 50.2847 -1.45378V26.1671V53.788C47.2906 53.788 40.785 53.2303 34.4318 48.1612C30.6611 45.1527 26.1596 39.775 24.7748 31.8297C23.4071 23.9822 25.7848 17.6641 27.8862 14.0216L51.8111 27.8244ZM50.2847 26.1671L50.3106 -1.45377C34.8948 -1.46826 19.479 -1.52622 4.06324 -1.62764L3.88153 25.9927L3.69981 53.613C19.2194 53.7151 34.7391 53.7734 50.2587 53.788L50.2847 26.1671ZM3.88153 25.9927V-1.62823C0.703947 -1.62823 -3.15957 -1.16628 -7.17366 0.217163C-10.5703 1.38779 -18.59 4.77171 -23.7503 13.7163L0.174508 27.5191L24.0993 41.3219C19.5932 49.1326 12.8309 51.7533 10.8263 52.4442C8.20414 53.3479 5.86704 53.6136 3.88153 53.6136V25.9927ZM0.174508 27.5191L-23.7503 13.7163C-26.1587 17.8908 -28.6623 24.7137 -27.2062 33.0222C-25.7306 41.4425 -20.9314 47.1629 -16.829 50.4142C-9.84315 55.9509 -2.35997 56.7397 1.28872 56.7942L1.70093 29.1763L2.11313 1.55852C4.78782 1.59844 11.1807 2.12562 17.4833 7.12077C21.244 10.1013 25.8034 15.481 27.2064 23.4866C28.5897 31.3802 26.1806 37.7144 24.0993 41.3219L0.174508 27.5191Z"
            fill="#BAFDA2" mask="url(#path-5-inside-3_13_195)" />
        <mask id="path-7-inside-4_13_195" fill="white">
            <path
                d="M29.3072 48.6709C29.6416 32.8834 29.8306 17.0813 29.8887 1.29381C29.8887 -1.03216 24.2773 0.159899 24.2773 1.9916C24.2337 17.7937 24.0302 33.5812 23.6958 49.3687C23.6522 51.6802 29.2781 50.5172 29.3072 48.6709Z" />
        </mask>
        <path
            d="M29.3072 48.6709C29.6416 32.8834 29.8306 17.0813 29.8887 1.29381C29.8887 -1.03216 24.2773 0.159899 24.2773 1.9916C24.2337 17.7937 24.0302 33.5812 23.6958 49.3687C23.6522 51.6802 29.2781 50.5172 29.3072 48.6709Z"
            fill="#BAFDA2" />
        <path
            d="M29.3072 48.6709L1.6925 48.0861L1.69091 48.1611L1.68973 48.236L29.3072 48.6709ZM29.8887 1.29381L57.5094 1.39554L57.5096 1.34468V1.29381H29.8887ZM24.2773 1.9916L51.8981 2.06783L51.8982 2.02972V1.9916H24.2773ZM23.6958 49.3687L-3.91891 48.7839L-3.91958 48.8158L-3.92019 48.8477L23.6958 49.3687ZM29.3072 48.6709L56.9219 49.2558C57.2599 33.2987 57.4507 17.3354 57.5094 1.39554L29.8887 1.29381L2.26798 1.19208C2.2104 16.8273 2.02327 32.4681 1.6925 48.0861L29.3072 48.6709ZM29.8887 1.29381H57.5096C57.5096 -4.97543 55.4592 -11.5223 50.9743 -16.9716C46.8044 -22.038 41.8309 -24.5953 38.2506 -25.866C31.6151 -28.2211 25.6854 -27.6909 22.4964 -27.1539C18.9489 -26.5565 14.611 -25.233 10.3812 -22.5556C7.58389 -20.7849 -3.34361 -13.1503 -3.34361 1.9916H24.2773H51.8982C51.8982 16.2176 41.6721 23.0164 39.927 24.121C36.7493 26.1325 33.8143 26.9599 31.6696 27.321C29.8835 27.6218 25.3566 28.1757 19.7733 26.194C16.719 25.11 12.1839 22.8269 8.32092 18.1333C4.1429 13.0569 2.2678 6.98155 2.2678 1.29381H29.8887ZM24.2773 1.9916L-3.3435 1.91537C-3.3866 17.5314 -3.58777 33.1485 -3.91891 48.7839L23.6958 49.3687L51.3105 49.9536C51.6481 34.0139 51.854 18.056 51.8981 2.06783L24.2773 1.9916ZM23.6958 49.3687L-3.92019 48.8477C-4.03902 55.1461 -2.09001 61.8167 2.41564 67.4084C6.59661 72.5972 11.6328 75.205 15.2236 76.4931C21.8742 78.8789 27.822 78.3528 30.9865 77.8288C34.5293 77.2422 38.8534 75.936 43.0754 73.2912C45.8929 71.5262 56.6893 64.0517 56.9247 49.1059L29.3072 48.6709L1.68973 48.236C1.91056 34.2133 11.9929 27.5765 13.7487 26.4766C16.909 24.4968 19.8238 23.6832 21.962 23.3291C23.7218 23.0377 28.2695 22.4844 33.8766 24.4958C36.9457 25.5967 41.5492 27.9307 45.4308 32.7478C49.637 37.9679 51.4197 44.1692 51.3118 49.8898L23.6958 49.3687Z"
            fill="#BAFDA2" mask="url(#path-7-inside-4_13_195)" />
    </g>
    <defs>
        <clipPath id="clip0_13_195">
            <rect width="52" height="50.6626" fill="white" />
        </clipPath>
    </defs>
</svg>