<svg  height="23" viewBox="0 0 30 23" fill="none" xmlns="http://www.w3.org/2000/svg">
    <g clip-path="url(#clip0_13_188)">
        <path class="line"
            d="M3.94999 8.46C4.80999 7.19 5.68999 5.93 6.60999 4.69C7.04999 4.09 7.49999 3.5 7.94999 2.91C8.44999 2.27 9.07999 1.63 9.37999 0.87C9.62999 0.23 8.56999 0 8.18999 0C7.35999 0 6.51999 0.26 5.85999 0.79C5.19999 1.32 4.69999 2.1 4.17999 2.77C3.70999 3.38 3.24999 3.99 2.78999 4.61C1.87999 5.85 0.98999 7.1 0.13999 8.38C-0.39001 9.16 0.59999 9.58 1.24999 9.58C2.15999 9.58 3.39999 9.27 3.94999 8.46Z"
            fill="none"
            stroke="black"
            stroke-width="3"
        />
        <path class="line"
            d="M14.04 14.23C17.44 10.94 20.98 7.78005 24.61 4.73005C24.82 4.55005 25.06 4.22005 24.98 3.92005C24.9 3.62005 24.52 3.46005 24.25 3.40005C23.35 3.20005 22.29 3.55005 21.59 4.11005C17.89 7.11005 14.33 10.28 10.9 13.59C10.69 13.79 10.42 14.11 10.51 14.44C10.6 14.77 10.99 14.93 11.27 14.98C12.16 15.14 13.37 14.88 14.04 14.24V14.23Z"
            fill="none" stroke="black" stroke-width="3" />
        <path class="line"
            d="M16.76 21.9199C18.48 21.4499 20.21 21.0299 21.95 20.6699C22.15 20.6299 22.35 20.5899 22.55 20.5499C23.01 20.4599 22.4 20.5799 22.83 20.4899C23.3 20.3999 23.77 20.3099 24.24 20.2299C25.12 20.0699 26 19.9199 26.88 19.7799C27.58 19.6599 28.86 19.3299 29.03 18.4899C29.2 17.6499 27.88 17.6199 27.39 17.6799C23.62 18.1599 19.88 18.9699 16.22 19.9699C15.65 20.1199 14.31 20.6599 14.53 21.4699C14.75 22.2799 16.21 22.0699 16.75 21.9199H16.76Z"
            fill="none" stroke="black" stroke-width="3" />
    </g>
    <defs>
        <clipPath id="clip0_13_188">
            <rect width="29.05" height="22.06" fill="white" />
        </clipPath>
    </defs>
</svg>