<svg width="159" height="48" viewBox="0 0 159 48" fill="none" xmlns="http://www.w3.org/2000/svg">
    <g clip-path="url(#clip0_13_209)">
        <path class="highlight"
            d="M1.647 3.0685 116.519 4.6591C127.259 4.8139 137.999 4.9547 148.739 5.1095L152.764 5.23C114.38 4.3213 78.5852 6.5594 42.8046 8.7834 32.7545 9.4169 22.6903 10.0362 17.047 10.211 11.555 10.576 9.618 10.257 7.747 9.465 11.259 11.328 10.838 11.217 15.012 11.828 47.7593 13.9213 84.3281 14.1887 117.89 16.622 131.018 17.0884 141.222 17.8767 153.158 16.018L152.162 16.206C131.032 18.4538 109.242 21.0298 88.234 24.503 86.72 24.644 85.289 24.834 84.279 24.793 85.275 25.512 85.981 25.429 86.991 25.553 103.401 27.2233 120.742 28.3635 138.041 30.0526L140.554 30.155C123.262 28.5746 107.089 30.3482 91.029 32.566 89.961 32.756 88.631 32.978 87.066 32.847 88.905 34.008 88.951 34.027 90.07 34.301 100.463 35.813 111.368 37.2738 121.953 40.2439L124.916 41.237C116.491 38.8081 109.735 40.1875 102.979 41.5952 102.035 41.7922 99.4174 43.3125 101.177 44.2837 104.766 46.2685 108.665 47.4931 112.733 47.9717"
            fill="none" 
            stroke="black"
            stroke-width="2.5" />
    </g>
    <defs>
        <clipPath id="clip0_13_209">
            <rect width="159" height="48" fill="white" />
        </clipPath>
    </defs>
</svg>