<svg width="159" height="48" viewBox="0 0 159 48" fill="none" xmlns="http://www.w3.org/2000/svg">
<g clip-path="url(#clip0_13_209)">
<path d="M1.647 3.06848L116.519 4.6591C127.259 4.81394 137.999 4.9547 148.739 5.10954L150.161 2.08315C114.38 4.32127 78.5852 6.55939 42.8046 8.78344C32.7545 9.41687 22.6903 10.0362 12.6402 10.6697C11.6971 10.726 10.0502 11.3031 9.68427 12.2884C9.3183 13.2738 10.3881 13.6679 11.2326 13.6679C47.7593 13.9213 84.3281 14.1887 120.798 16.455C131.018 17.0884 141.222 17.8767 151.413 18.8761L152.821 15.8638C131.032 18.4538 109.242 21.0298 87.453 23.6198C86.4958 23.7324 84.863 24.2251 84.483 25.2526C84.1029 26.2802 85.1868 26.604 86.0313 26.6321C103.401 27.2233 120.742 28.3635 138.041 30.0526L139.463 27.0263C123.262 28.5746 107.089 30.3482 90.9297 32.3752C89.9584 32.5019 88.3116 32.9805 87.9315 34.0222C87.5515 35.0638 88.6494 35.4016 89.4939 35.4157C100.487 35.655 111.368 37.2738 121.953 40.2439L123.248 37.4145C116.491 38.8081 109.735 40.1875 102.979 41.5952C102.035 41.7922 99.4174 43.3125 101.177 44.2837C104.766 46.2685 108.665 47.4931 112.733 47.9717C114 48.1125 115.562 47.8872 116.519 46.9582C117.251 46.2544 117.223 45.1987 116.013 45.0579C112.283 44.6216 108.792 43.4814 105.512 41.6374L103.71 44.326C110.467 42.9324 117.209 41.5389 123.966 40.1312C125.303 39.8497 127.611 37.9635 125.26 37.3019C114.295 34.2474 102.979 32.6004 91.5912 32.3471L90.1696 35.3875C106.329 33.3746 122.502 31.5729 138.703 30.0245C139.66 29.94 141.307 29.4051 141.673 28.3917C142.039 27.3782 140.955 27.0826 140.125 26.9981C122.825 25.309 105.484 24.1688 88.1145 23.5776L86.6929 26.5899C108.482 23.9999 130.271 21.4098 152.075 18.8339C153.032 18.7213 154.665 18.2286 155.031 17.201C155.397 16.1735 154.313 15.8919 153.482 15.8216C117.111 12.2884 80.5558 11.3031 44.0292 10.8949C33.782 10.7823 23.5489 10.7119 13.3017 10.6415L11.8942 13.6397C47.6748 11.4016 83.4554 9.17758 119.25 6.95353L149.415 5.08139C150.358 5.02508 152.033 4.43388 152.385 3.44854C152.736 2.46321 151.681 2.06907 150.836 2.05499C112.55 1.50602 74.264 0.9852 35.9778 0.450302L3.75837 -0.000137539C2.60416 -0.0142138 0.802456 0.393997 0.183122 1.47787C-0.436213 2.56174 0.718001 3.05441 1.647 3.06848Z" fill="black"/>
</g>
<defs>
<clipPath id="clip0_13_209">
<rect width="159" height="48" fill="white"/>
</clipPath>
</defs>
</svg>
