<svg class="spring" width="122" height="174" viewBox="0 0 122 174" fill="none" xmlns="http://www.w3.org/2000/svg">
    <g clip-path="url(#clip0_13_185)">
        <path
            d="M54.9601 0.373235C48.8527 4.55099 43.3459 9.53499 38.6422 15.2186C34.701 19.9894 29.2954 27.2921 32.9666 33.6221C35.99 38.8393 43.1704 39.5056 48.6165 39.6055C54.9939 39.7255 61.405 39.1391 67.6136 37.6866C73.8223 36.234 79.7002 33.9486 84.9169 30.4704C87.4678 28.7713 89.8365 26.8057 91.9151 24.5603C92.4212 24.0139 92.9206 23.4475 93.393 22.8745C93.8317 22.3415 94.4863 21.7151 94.7697 21.0888C95.2084 20.096 93.5212 18.6768 92.7856 18.2103C90.5586 16.7978 87.5218 16.8844 85.0113 17.2975C81.6506 17.8439 78.4315 19.1632 75.2597 20.3492C68.1467 23.0078 61.2093 26.0928 54.4607 29.5576C47.7122 33.0224 41.1054 36.927 34.7955 41.1847C28.4856 45.4424 22.5536 49.5668 17.499 54.8374C13.2272 59.2883 7.27496 66.9242 11.6008 73.1076C13.3621 75.6262 16.345 77.1521 19.1659 78.2315C22.7359 79.5974 26.4678 80.5502 30.247 81.1299C45.7686 83.5086 61.6412 80.0905 76.5149 75.8394C84.2892 73.6206 91.9488 71.0087 99.4464 68.017C103.212 66.5178 106.944 64.9186 110.629 63.2195C113.375 61.9535 116.878 60.4277 118.012 57.3893C118.234 56.783 118.295 56.1167 118.194 55.477C118.052 54.5775 117.101 54.3643 116.331 54.0511C114.678 53.3781 112.93 52.9184 111.162 52.6585C107.504 52.1255 103.766 52.3387 100.128 52.9117C96.2949 53.5114 92.5225 54.4709 88.777 55.4637C84.8426 56.5098 80.9285 57.6425 77.0481 58.8685C69.3547 61.3006 61.7626 64.0657 54.3392 67.2174C47.4895 70.1292 40.7679 73.4141 34.512 77.4386C28.2562 81.4631 22.6819 85.8807 18.1873 91.491C14.0707 96.6283 10.764 102.972 10.5952 109.648C10.4333 116.011 13.3351 121.828 18.3223 125.813C23.3095 129.797 30.1188 131.929 36.7458 132.103C44.9588 132.309 52.9895 130.057 60.6559 127.378C67.6474 124.94 74.4566 122.028 81.0567 118.71C87.6568 115.392 94.0139 111.667 100.101 107.529C103.172 105.444 106.175 103.265 109.104 100.986C112.032 98.7071 114.914 96.495 117.506 93.943C119.753 91.7309 122.128 88.7858 121.973 85.4676C121.939 84.7813 121.798 84.0084 121.453 83.3954C121.049 82.6824 119.834 82.5491 119.064 82.4026C117.188 82.0361 115.245 82.0628 113.362 82.3226C109.441 82.8623 105.729 84.3349 102.072 85.7608C98.4139 87.1867 94.9249 88.6059 91.3887 90.1251C77.0413 96.2685 63.1123 103.391 49.7502 111.414C43.1232 115.398 36.6311 119.603 30.2942 124.027C24.5715 128.025 18.8959 132.156 13.8683 137.007C8.84062 141.857 4.77801 147.028 2.15283 153.238C0.782874 156.483 -0.344132 160.101 0.081026 163.659C0.43195 166.617 2.10559 169.136 4.57555 170.802C9.56272 174.16 16.21 174.113 22.0003 173.933C30.1188 173.687 38.2102 172.881 46.2343 171.635C62.4712 169.109 78.3708 164.865 94.0544 160.074C101.592 157.769 109.083 155.33 116.574 152.905C116.966 152.778 117.904 152.445 117.748 151.879C117.6 151.339 116.574 151.452 116.21 151.565C98.1777 157.409 80.0782 163.219 61.5332 167.277C52.2877 169.296 42.9275 170.848 33.493 171.701C28.9175 172.114 24.3083 172.394 19.7125 172.408C16.453 172.414 13.0652 172.154 9.98787 171.022C6.91054 169.889 4.27861 167.837 3.30008 164.658C2.05835 160.614 3.58352 156.116 5.22341 152.392C8.36148 145.256 13.7873 139.345 19.672 134.288C26.1034 128.758 33.2028 123.954 40.2955 119.309C47.7729 114.412 55.446 109.801 63.2946 105.504C71.1431 101.206 79.2346 97.188 87.4475 93.5099C91.5372 91.6776 95.6605 89.9319 99.8176 88.2661C103.975 86.6003 108.132 84.6614 112.518 83.9617C114.644 83.6219 116.797 83.6419 118.848 84.3482L118.558 84.0417C120.374 87.813 117.303 91.6043 114.631 94.0763C111.506 96.9681 108.098 99.62 104.697 102.179C97.901 107.289 90.6936 111.867 83.1892 115.885C75.6916 119.896 67.8701 123.321 59.8393 126.146C51.3496 129.131 42.0569 131.689 32.9869 130.057C25.9347 128.784 18.8622 124.747 15.4947 118.297C11.8437 111.294 13.4836 103.218 17.2898 96.6416C21.3996 89.5521 27.723 83.9884 34.4851 79.4108C41.5778 74.6068 49.3251 70.8554 57.2411 67.5772C65.967 63.9658 74.9088 60.8475 83.9923 58.2422C88.3384 56.9962 92.7182 55.7902 97.1519 54.884C101.269 54.0378 105.601 53.5114 109.785 54.1844C111.83 54.5109 113.78 55.1305 115.623 56.0567L115.339 55.7635C116.142 58.7553 112.714 60.6342 110.447 61.6937C106.971 63.3128 103.448 64.8387 99.8919 66.2845C92.7991 69.1697 85.558 71.7083 78.2088 73.8805C64.1584 78.0316 49.1699 81.5963 34.4108 79.9772C30.7936 79.5841 27.1899 78.8578 23.7211 77.7517C20.7923 76.8122 17.6947 75.6529 15.4272 73.514C9.77867 68.1969 14.8671 60.5743 18.9702 56.0434C23.6267 50.8995 29.5046 46.7683 35.2071 42.8438C40.9097 38.9192 47.3073 35.0213 53.6711 31.6298C60.035 28.2383 66.5878 25.2332 73.2959 22.5946C76.4407 21.3553 79.6462 20.036 82.9125 19.1498C85.1261 18.5502 87.8052 18.137 89.9648 19.1298C90.9905 19.5963 91.7464 20.3825 92.1715 21.4086L92.266 21.0222C84.5794 31.7164 71.4738 36.4872 58.6921 37.7598C55.473 38.0797 52.2337 38.1863 49.0012 38.0997C45.7686 38.013 42.6373 37.7199 39.7692 36.4139C36.901 35.1079 34.7145 32.576 34.4446 29.3177C34.1409 25.6996 36.0237 22.1282 38.0213 19.2231C42.9005 12.1403 49.4601 5.99022 56.573 1.12616C56.9442 0.872967 57.3288 0.433203 56.8025 0.120037C56.3233 -0.166476 55.3718 0.0733957 54.9534 0.359909L54.9601 0.373235Z"
            fill="black" stroke="black" />
    </g>
    <defs>
        <clipPath id="clip0_13_185">
            <rect width="122" height="174" fill="white" />
        </clipPath>
    </defs>
</svg>